<svg xmlns="http://www.w3.org/2000/svg" viewBox="0 0 256 256" role="img" aria-label="SEA-Geko happy mascot">
  <defs>
    <radialGradient id="bgHappy" cx="50%" cy="35%" r="75%">
      <stop offset="0%" stop-color="#e6ff8e"/>
      <stop offset="100%" stop-color="#59ab1d"/>
    </radialGradient>
  </defs>
  <rect width="256" height="256" rx="40" fill="#eef8e6"/>
  <ellipse cx="128" cy="216" rx="64" ry="14" fill="#d4dfca"/>
  <ellipse cx="128" cy="122" rx="84" ry="72" fill="url(#bgHappy)" stroke="#2f6d1b" stroke-width="5"/>
  <ellipse cx="128" cy="156" rx="44" ry="40" fill="#eef9c7"/>
  <ellipse cx="98" cy="114" rx="20" ry="23" fill="#fff"/>
  <ellipse cx="158" cy="114" rx="20" ry="23" fill="#fff"/>
  <ellipse cx="101" cy="117" rx="11" ry="13" fill="#2a1b10"/>
  <path d="M147 118c2 6 8 8 13 8" fill="none" stroke="#2a1b10" stroke-width="5" stroke-linecap="round"/>
  <circle cx="105" cy="112" r="4" fill="#fff"/>
  <ellipse cx="118" cy="140" rx="4" ry="3" fill="#6a9e24"/>
  <ellipse cx="138" cy="140" rx="4" ry="3" fill="#6a9e24"/>
  <path d="M96 160c8 15 56 15 64 0" fill="#ff7e4f" stroke="#57280f" stroke-width="5" stroke-linecap="round"/>
  <circle cx="84" cy="137" r="9" fill="#ff9a5a"/>
  <circle cx="172" cy="137" r="9" fill="#ff9a5a"/>
  <path d="M203 66l8 12 13 1-10 8 3 12-12-6-11 7 2-13-9-9 13-2z" fill="#ffd84a"/>
  <path d="M43 78l6 8 9 1-7 6 2 8-8-4-7 5 1-9-6-6 9-1z" fill="#ffd84a"/>
</svg>
