<svg xmlns="http://www.w3.org/2000/svg" viewBox="0 0 256 256" role="img" aria-label="SEA-Geko sad mascot">
  <defs>
    <radialGradient id="bgSad" cx="50%" cy="40%" r="75%">
      <stop offset="0%" stop-color="#e1ff8d"/>
      <stop offset="100%" stop-color="#62af20"/>
    </radialGradient>
  </defs>
  <rect width="256" height="256" rx="40" fill="#eff4ea"/>
  <ellipse cx="128" cy="216" rx="64" ry="14" fill="#d4dfca"/>
  <ellipse cx="128" cy="122" rx="84" ry="72" fill="url(#bgSad)" stroke="#2f6d1b" stroke-width="5"/>
  <ellipse cx="128" cy="156" rx="44" ry="40" fill="#eef9c7"/>
  <ellipse cx="98" cy="114" rx="20" ry="23" fill="#fff"/>
  <ellipse cx="158" cy="114" rx="20" ry="23" fill="#fff"/>
  <ellipse cx="101" cy="117" rx="11" ry="13" fill="#2a1b10"/>
  <ellipse cx="155" cy="117" rx="11" ry="13" fill="#2a1b10"/>
  <circle cx="105" cy="112" r="4" fill="#fff"/>
  <circle cx="159" cy="112" r="4" fill="#fff"/>
  <ellipse cx="118" cy="140" rx="4" ry="3" fill="#6a9e24"/>
  <ellipse cx="138" cy="140" rx="4" ry="3" fill="#6a9e24"/>
  <path d="M106 172c7-10 37-10 44 0" fill="none" stroke="#43250f" stroke-width="5" stroke-linecap="round"/>
  <path d="M86 132c2 8 4 15 7 24" fill="none" stroke="#79d1ff" stroke-width="6" stroke-linecap="round"/>
  <path d="M170 132c-2 8-4 15-7 24" fill="none" stroke="#79d1ff" stroke-width="6" stroke-linecap="round"/>
  <ellipse cx="86" cy="162" rx="8" ry="4" fill="#79d1ff"/>
  <ellipse cx="170" cy="162" rx="8" ry="4" fill="#79d1ff"/>
</svg>
